<?xml version="1.0" encoding="utf-8"?>
<!-- Generator: Adobe Illustrator 25.2.1, SVG Export Plug-In . SVG Version: 6.00 Build 0)  -->
<svg version="1.1" id="Camada_1" xmlns="http://www.w3.org/2000/svg" xmlns:xlink="http://www.w3.org/1999/xlink" x="0px" y="0px"
	 viewBox="0 0 128 128" style="enable-background:new 0 0 128 128;" xml:space="preserve">
<style type="text/css">
	.st0{fill:#F7B72D;}
	.st1{fill:#42117A;}
</style>
<g>
	<g>
		<path class="st0" d="M64.11,1.92c19.52,0.25,35.88,14.97,37.9,34.23c0.65,6.18-0.95,11.99-2.98,17.72
			c-5.87,16.62-13.49,32.49-20.97,48.41c-3.32,7.07-6.8,14.06-9.96,21.19c-0.88,1.99-2.17,2.51-3.98,2.59
			c-2.11,0.1-3.41-1.03-4.27-2.87c-2.11-4.51-4.25-9-6.37-13.5c-8.4-17.77-17.07-35.43-23.83-53.92c-0.81-2.22-1.4-4.53-2.19-6.76
			c-6.4-18.25,6.69-42.27,29.6-46.33C59.38,2.29,61.76,2.17,64.11,1.92z"/>
	</g>
	<circle class="st1" cx="64.09" cy="36.36" r="11.84"/>
</g>
</svg>
