<svg xmlns="http://www.w3.org/2000/svg" viewBox="0 0 512.01 469.33"><defs><style>.cls-1{fill:#42117a;}</style></defs><title>image</title><g id="Camada_2" data-name="Camada 2"><g id="Layer_1" data-name="Layer 1"><path class="cls-1" d="M372.32,469.33a42.58,42.58,0,0,1-10.88-1.4L31.56,379.58A43,43,0,0,1,1.4,327.32L43,172.18a10.67,10.67,0,1,1,20.61,5.51L22,332.78A21.65,21.65,0,0,0,37.17,359l329.75,88.3a21.26,21.26,0,0,0,26-15l16.66-61.74a10.67,10.67,0,0,1,20.61,5.55l-16.64,61.65a42.61,42.61,0,0,1-41.2,31.59Z"/><path class="cls-1" d="M469.32,341.33H128a42.71,42.71,0,0,1-42.67-42.66v-256A42.72,42.72,0,0,1,128,0H469.32A42.72,42.72,0,0,1,512,42.67v256A42.71,42.71,0,0,1,469.32,341.33ZM128,21.33a21.37,21.37,0,0,0-21.33,21.34v256A21.37,21.37,0,0,0,128,320H469.32a21.37,21.37,0,0,0,21.34-21.33v-256a21.37,21.37,0,0,0-21.34-21.34Z"/><path class="cls-1" d="M192,149.33a42.67,42.67,0,1,1,42.67-42.66A42.71,42.71,0,0,1,192,149.33Zm0-64a21.34,21.34,0,1,0,21.33,21.34A21.37,21.37,0,0,0,192,85.33Z"/><path class="cls-1" d="M97.48,318.51a10.66,10.66,0,0,1-7.55-18.2L190.69,199.55c12.07-12.07,33.17-12.07,45.25,0l30,30,83-99.63a32.07,32.07,0,0,1,24.36-11.52h.24a32,32,0,0,1,24.3,11.16L509.43,259.73a10.67,10.67,0,0,1-16.19,13.89L381.66,143.45a10.53,10.53,0,0,0-8.1-3.72c-2.22-.19-6.12,1.35-8.19,3.84L274.85,252.18a10.62,10.62,0,0,1-7.72,3.82,10.32,10.32,0,0,1-8-3.11l-38.25-38.26a11,11,0,0,0-15.08,0L105,315.39a10.63,10.63,0,0,1-7.53,3.12Z"/></g></g></svg>