<svg xmlns="http://www.w3.org/2000/svg" viewBox="0 0 317.48 320.82"><defs><style>.cls-1{fill:#42117a;}.cls-2,.cls-5,.cls-6,.cls-8{fill:none;}.cls-2,.cls-8{stroke:#000;}.cls-2,.cls-5,.cls-6{stroke-miterlimit:10;}.cls-2,.cls-6{stroke-width:1.55px;}.cls-3{fill:#f26e5a;}.cls-4{fill:#f7b72d;}.cls-5{stroke:#db5749;stroke-width:1.5px;}.cls-6{stroke:#fce7e4;}.cls-7{fill:#db5749;}.cls-8{stroke-linecap:round;stroke-linejoin:round;stroke-width:1.24px;}</style></defs><g id="Camada_2" data-name="Camada 2"><g id="OBJECTS"><path class="cls-1" d="M207.08,215.57l-.74-10-62.54,3.07v9.69s-14.07,13.38-19.62,102.42H236.76S249.11,241.92,207.08,215.57Z"/><line class="cls-2" x1="143.8" y1="218.3" x2="207.08" y2="215.57"/><polyline class="cls-2" points="156.73 259.35 169.69 264.63 176.63 320.72"/><path class="cls-3" d="M75.42,196.18l17.28-57,38,14.24L112.47,208a19.45,19.45,0,0,1-37-11.83Z"/><path class="cls-4" d="M102.07,108.67a20.62,20.62,0,1,1,39.28,12.55L130.7,153.38l-38-14.24Z"/><path class="cls-3" d="M104.76,191.9,61.35,109.59s1-14.87-23.71-15.76v0c-.34,0-.67,0-1,0H28.38a3.13,3.13,0,0,0-3.14,2.6,3.06,3.06,0,0,0,2.64,3.48l8.33,1.18-11.33,3-2.12.78L7.33,94.67a2.5,2.5,0,0,0-3,4c1,.79,2.48,2.1,4.15,3.55l-3.4-2a2.5,2.5,0,0,0-2.73,4.19l3,2.14L4.15,106a3.05,3.05,0,0,0-3.62,1,2.94,2.94,0,0,0,1.28,4.39l16.86,7.06c2.91,1.22,5.69,2,9.11,1.17l15-3.55,33.63,94.14Z"/><line class="cls-5" x1="86.95" y1="158.12" x2="94.98" y2="173.35"/><path class="cls-4" d="M135.87,94.32l-16.14,1.21S96.36,127.22,143.8,208.61l62.54-3.07,4.71-87.7L203.33,93h-28Z"/><path class="cls-6" d="M117.55,148.45s-4.65-9.79-1.66-31.47"/><path class="cls-3" d="M262.74,184.72l-26-53.64-35.31,20L228,202.2a19.45,19.45,0,0,0,34.75-17.48Z"/><path class="cls-4" d="M222.74,102.46A20.62,20.62,0,1,0,185.91,121l15.54,30.1,35.31-20Z"/><line class="cls-6" x1="201.45" y1="151.09" x2="188.61" y2="126.23"/><path class="cls-3" d="M317,93a3.06,3.06,0,0,0-3.63-1l-7.54,2.94,7.08-6a3,3,0,0,0,.62-4,3,3,0,0,0-4.26-.61l-6.6,5.31,5.62-7.35a3,3,0,0,0-.25-4,2.94,2.94,0,0,0-4.3.31L292.6,90l-11.33-3,8.33-1.17a3.05,3.05,0,0,0,2.64-3.48,3.12,3.12,0,0,0-3.14-2.6h-8.25a19.81,19.81,0,0,0-13.25,4.94l-.18.13c-5.07,4-3.23,12.18-3.23,12.18l-31.11,88.08,30.84,13.68,17.77-94.59,11.35,0a11.55,11.55,0,0,0,2.12,0h.08a12.12,12.12,0,0,0,3.58-.88l16.86-6A3,3,0,0,0,317,93Z"/><line class="cls-5" x1="245.17" y1="148.45" x2="238.45" y2="171.91"/><path class="cls-1" d="M134.61,21.66c-1.94,1.34-15,4.73-15.24,7.09,0,0,4.29,16.77-.11,19.9-11.87,8.46-15.68,25.05-15.68,25.05s31.34,23.47,114.64-1.17c0,0,1-10-14.15-17.23a23.81,23.81,0,0,1-10.6-9.41,18.35,18.35,0,0,1-2.67-7.61C189.41,30.05,166.72-.36,134.61,21.66Z"/><path class="cls-7" d="M135.84,46.8a10,10,0,1,1-10.66-9.27A10,10,0,0,1,135.84,46.8Z"/><path class="cls-3" d="M140.36,71.27,141.74,93c.47,7.63,3.59,12.82,11.09,12.3h0c6.41-.44,14-5.58,14.39-12L163.4,59.22Z"/><path class="cls-3" d="M135.87,94.32,175.31,93s-1,19.39-24.4,17.57C134.61,109.26,135.87,94.32,135.87,94.32Z"/><polygon class="cls-7" points="141.49 89.17 166.7 64.52 140.17 69.04 141.49 89.17"/><path class="cls-3" d="M147,74.78h0c-12.84,0-23.44-10.07-23.82-20.55l-.76-24.74a24.38,24.38,0,0,1,22.66-25.2h0c13.43-.93,27.42,9,28.35,22.46l.39,19.9C174.1,62,162.32,73.71,147,74.78Z"/><polyline class="cls-8" points="136.61 45.52 135.87 51.66 139.04 51.78"/><path d="M149.29,30.53s-7.09-.58-7.16,2.3c0,0,0,2,6.19,2.35s7.79-.07,8.36-1.91S152.62,30.55,149.29,30.53Z"/><path d="M128.73,34.74s5.37-.43,5.88,2.17c0,0,.3,1.75-4.41,2s-6.16-.31-6.25-1.8C123.85,35.36,126.17,34.72,128.73,34.74Z"/><path d="M131.85,43.18a2.27,2.27,0,1,1-2.34-2.2A2.27,2.27,0,0,1,131.85,43.18Z"/><path d="M150.9,42.55a2.27,2.27,0,1,1-2.34-2.19A2.26,2.26,0,0,1,150.9,42.55Z"/><path class="cls-8" d="M144.27,56.05s-3.36-1.53-7.41,2"/><path class="cls-1" d="M153,0a30.62,30.62,0,0,0-9.53,1c-7.69,2-21.49,7.74-23.86,22.51-.79,3.89-.24,5.19-.24,5.19s25.78,1,41-6.18c2.19,9.28,4.22,15,13.39,24.08l8.15-12.25,9.17,8.23C191.17,42.94,191.16,2.07,153,0Z"/><path class="cls-3" d="M187.17,46.9a10,10,0,1,1-10.66-9.27A10,10,0,0,1,187.17,46.9Z"/><path class="cls-8" d="M173.39,50.45s-.5-7.23,6.49-6.57"/></g></g></svg>