<svg xmlns="http://www.w3.org/2000/svg" viewBox="0 0 689.48 516.3"><defs><style>.cls-1{opacity:0.1;}.cls-2{fill:#42117a;}.cls-3{fill:#fff;}.cls-4{fill:#47393d;}.cls-5{fill:#ffbb8d;}.cls-6{fill:#f7b72d;}.cls-7{fill:#f2e9e8;}.cls-8{opacity:0.5;}</style></defs><title>notAuthorized</title><g id="Camada_2" data-name="Camada 2"><g id="Layer_1" data-name="Layer 1"><g class="cls-1"><path class="cls-2" d="M61,516c-43-18.54-103.32-123.11-17.53-221.24C97.11,233.38,12.85,103.53,171.15,22.6,274.54-30.26,501.09,7.92,623.57,155.12c83.26,100,85.18,247.26,19.64,359.49Z"/></g><path class="cls-3" d="M171.4,399.69c-.57-.81-1.15-1.61-1.75-2.4l1.2-.91c.61.8,1.2,1.62,1.78,2.45Z"/><path class="cls-3" d="M166,392.73c-1.25-1.43-2.59-2.89-4-4.32l1.07-1.05c1.42,1.46,2.79,2.93,4.05,4.39Zm-8.21-8.43c-1.37-1.27-2.85-2.59-4.4-3.92l1-1.14c1.56,1.35,3.06,2.68,4.44,4Zm-8.94-7.69q-2.3-1.85-4.64-3.66l.92-1.19c1.57,1.22,3.12,2.44,4.66,3.68Zm-9.34-7.25-3.76-2.83-1-.74.91-1.2,1,.74,3.76,2.83ZM130,362.22c-1.58-1.2-3.15-2.4-4.7-3.62l.92-1.18c1.55,1.21,3.12,2.41,4.69,3.61Zm-9.34-7.34c-1.62-1.34-3.1-2.6-4.54-3.86l1-1.12c1.42,1.25,2.9,2.5,4.5,3.82ZM111.72,347c-1.47-1.4-2.88-2.82-4.2-4.22l1.09-1c1.3,1.38,2.7,2.78,4.15,4.17Zm-8.17-8.69c-.58-.69-1.16-1.4-1.72-2.12s-1.31-1.71-2-2.59l1.22-.88c.62.86,1.26,1.72,1.91,2.54s1.12,1.41,1.69,2.09Zm-7-9.7c-1-1.69-2-3.44-2.92-5.22l1.33-.68c.89,1.74,1.86,3.46,2.87,5.12ZM91.12,318c-.77-1.82-1.49-3.7-2.14-5.58l1.41-.49c.64,1.85,1.35,3.7,2.11,5.48Zm-3.9-11.29c-.52-1.91-1-3.87-1.37-5.82l1.48-.29c.38,1.91.83,3.84,1.34,5.71ZM84.88,295c-.26-2-.46-4-.6-6l1.5-.1c.13,1.95.33,3.92.58,5.85Zm-.81-11.91v-.29c0-1.89.06-3.8.18-5.69l1.49.1c-.11,1.85-.17,3.73-.17,5.59v.28Zm2.22-11.73-1.49-.19c.25-2,.57-4,.94-5.9l1.48.28C86.85,267.44,86.54,269.4,86.29,271.34Zm2.23-11.54-1.45-.38c.51-1.92,1.09-3.85,1.72-5.72l1.42.48C89.59,256,89,257.91,88.52,259.8Zm3.76-11.12-1.39-.58c.77-1.84,1.6-3.67,2.49-5.43l1.34.67C93.85,245.08,93,246.87,92.28,248.68Zm5.27-10.48-1.29-.77c1-1.72,2.12-3.4,3.26-5l1.22.86C99.63,234.86,98.55,236.52,97.55,238.2Zm6.75-9.58-1.15-1c1.09-1.32,2.29-2.71,3.89-4.5l1.12,1C106.57,225.93,105.38,227.31,104.3,228.62Zm7.82-8.87-1.12-1c1.58-1.78,2.77-3.15,3.85-4.47l1.16.95C114.91,216.56,113.71,218,112.12,219.75Zm16.74-3.89h-.4l0-1.5h.38a40.9,40.9,0,0,0,5.42-.37l.2,1.49A42.33,42.33,0,0,1,128.86,215.86Zm-6.41-.5a39.52,39.52,0,0,1-5.87-1.4l.46-1.43a36.6,36.6,0,0,0,5.65,1.34Zm17.93-1.12L140,212.8a38.56,38.56,0,0,0,5.45-2l.63,1.36A40.3,40.3,0,0,1,140.38,214.24ZM111,211.65a35.12,35.12,0,0,1-4.83-3l-.29-.22.91-1.19.28.2a32.54,32.54,0,0,0,4.62,2.88Zm8.63-1.19-1.23-.85.13-.19a45.37,45.37,0,0,0,2.87-4.8l1.34.69a47.31,47.31,0,0,1-3,4.95Zm31.69-1.27-.84-1.25a33.2,33.2,0,0,0,4.52-3.62l1,1.09A35.44,35.44,0,0,1,151.31,209.19Zm-49.91-4.84a29,29,0,0,1-3.61-4.88l1.3-.76a27.49,27.49,0,0,0,3.42,4.63ZM160,200.86,158.8,200a34.78,34.78,0,0,0,3-4.95l1.34.68A38.42,38.42,0,0,1,160,200.86Zm-34.94-1.12-1.42-.47a29.54,29.54,0,0,0,1.26-5.62l1.49.17A30.42,30.42,0,0,1,125.07,199.74Zm-29.69-5.87a20.4,20.4,0,0,1-.75-4.46c0-.31,0-.62,0-.94s0-.46,0-.69l1.49.06c0,.21,0,.42,0,.63s0,.57,0,.86a19.17,19.17,0,0,0,.69,4.13Zm70.05-3.77-1.43-.45a38.41,38.41,0,0,0,1.35-5.65l1.48.24A39.69,39.69,0,0,1,165.43,190.1Zm-40.56-2.17c-.07-.53-.16-1.05-.27-1.57a17,17,0,0,0-1.36-3.85l1.35-.67a18,18,0,0,1,1.47,4.21c.12.56.22,1.11.3,1.67ZM97.3,182.32l-1.39-.55a18,18,0,0,1,3.2-5.26l1.13,1A16.63,16.63,0,0,0,97.3,182.32Zm70.06-4.09-1.5,0c0-.22,0-.44,0-.66a40.24,40.24,0,0,0-.33-5.15l1.48-.19a41.4,41.4,0,0,1,.35,5.34C167.37,177.78,167.37,178,167.36,178.23ZM120,177.86a16.87,16.87,0,0,0-4.52-3.37l.67-1.34a18.05,18.05,0,0,1,4.93,3.67Zm-15.31-3.73-.63-1.36a13.09,13.09,0,0,1,3.07-1,12.91,12.91,0,0,1,3-.23l-.06,1.5a11.67,11.67,0,0,0-5.41,1.08Zm59.7-7.41a38,38,0,0,0-2-5.44l1.36-.63a38.54,38.54,0,0,1,2.1,5.65Z"/><path class="cls-3" d="M159.4,156.15c-.56-.81-1.16-1.59-1.78-2.33l1.15-1c.65.78,1.27,1.6,1.86,2.44Z"/><rect class="cls-4" x="470.65" y="145.04" width="12.5" height="33.29" rx="1.84" transform="translate(980.43 154.98) rotate(160.51)"/><path class="cls-5" d="M475.67,188.59a9.44,9.44,0,0,0-.81-6.12c-1.8-3.6-4.62-9.51-5-11.77-.24-1.58,4.12-11.16,5.5-10.6s-3,7.86-2.36,8.38c.37.29,4.61-7.13,5.88-6.08s-4.31,7.1-3.7,7.5c.37.24,1.42-1.6,2.7-2.31.77-.42,4.23-1.52,4.34-.58.12,1.1-2.57,1.37-3.47,2-1.2.87-1.85,2.26-1.66,2.41.36.29,1.92-1.24,3.32-1.64.88-.26,3.81-.05,3.91.53.17,1-2.58.62-3.44,1.11-1.05.61-2.43,1.44-1.85,1.82A10.63,10.63,0,0,1,484,184.91l0,.18,9.52,36.2,5.72-15.18,15.75,39s-19.17,14.46-34,3.18C468.3,238.71,473.37,200.07,475.67,188.59Z"/><path class="cls-4" d="M593.82,199.61l-.73-.18c6.63-27.6-8.93-36.52-18.8-39.38-11.75-3.41-16.51-11-16.55-11.06l.63-.39c0,.07,4.68,7.41,16.13,10.73C591.73,164.32,598.77,179,593.82,199.61Z"/><path class="cls-4" d="M518.19,145.75c-.18-.36-4.38-8.87-.86-15.23,2-3.67,6.2-5.83,12.41-6.42l.07.75c-5.95.56-9.93,2.59-11.83,6-3.33,6,.84,14.45.88,14.53Z"/><path class="cls-4" d="M518.53,145.58s-4.22-7.34,1.91-16.53c3.86-5.79,18.08-7.83,25.49-3,5.17,3.39,8.22,9.3,11.4,19.24,6.94,21.64,34.72,14.63,35.41,50.72L539,188.2Z"/><path class="cls-5" d="M528.78,499.25,527,481.13H507.86L512,498.72s2.22,5.9,8.66,5.68A8.89,8.89,0,0,0,528.78,499.25Z"/><path class="cls-5" d="M609.61,499.25l-1.77-18.12H588.69l4.82,18.25s1.78,4.23,8,5S609.61,499.25,609.61,499.25Z"/><path class="cls-2" d="M542.14,488.88s-23.57,7.49-50.47-2.38c0,0-18.18-122.94,16.14-216.58l41,3.89S526.92,387.42,542.14,488.88Z"/><path class="cls-2" d="M565.89,488.85s-39.73-122.22-35.76-214.7l53.46,3.33c-6.13,88.17,37.1,211.74,37.1,211.74s-22.12,5.45-54.8-.37Z"/><path class="cls-6" d="M494.59,215.58s9.68-39.21,42-40.05c62.31-1.63,71.34,48.15,71.34,48.15s-11.26,18.23-31.81,24.41L507,230.64A54.84,54.84,0,0,1,494.59,215.58Z"/><path class="cls-5" d="M549.07,176.55a64.91,64.91,0,0,1-3.5-24.67l-14.84,9.72-1.91,17.82a12,12,0,0,0,8.7,3.18C540.73,182.44,544.68,180.94,549.07,176.55Z"/><path class="cls-4" d="M529.48,172.88c10.24-3.36,12.36-11.61,12.36-11.61l-11.5,3.53Z"/><path class="cls-6" d="M473,191.58l15.15.17,6.47,23.83s6.15-32.25,34.55-39.15l-10.38,61.11s-9.71,18.72-28.94,15.15S466.33,220.86,473,191.58Z"/><path class="cls-5" d="M539.91,134.16c-6.54-3.63-17.74-4-20.32,5-2.39,8.3-2.56,31.47,8.2,31C550.08,169.19,546.93,138,539.91,134.16Z"/><rect class="cls-3" x="192.23" y="49.61" width="256.63" height="435.19"/><path class="cls-4" d="M448.79,30.54V50H192.17V30.54a12,12,0,0,1,12-12H436.82A12,12,0,0,1,448.79,30.54Z"/><path class="cls-4" d="M192.17,485.2H448.79v19.13a12,12,0,0,1-12,12H204.14a12,12,0,0,1-12-12Z"/><rect class="cls-4" x="447.47" y="50.01" width="1.32" height="435.34"/><path class="cls-7" d="M353.81,34.47H289.15a1.16,1.16,0,1,1,0-2.31h64.66a1.16,1.16,0,1,1,0,2.31Z"/><g class="cls-8"><rect class="cls-2" x="215.2" y="126.02" width="210.26" height="184.9" rx="6.92"/></g><path class="cls-4" d="M380.14,278l-.92-.39c12.45-29.67-3.33-42.49-13.85-47.49-12.57-6-16.42-15.07-16.58-15.46l.93-.38c0,.09,3.88,9.14,16.08,14.94C384.25,238,389.47,255.77,380.14,278Z"/><circle class="cls-2" cx="183.18" cy="123.26" r="44.79" transform="translate(31.55 283.76) rotate(-80.56)"/><path class="cls-4" d="M378.16,270.94l-52.91-17.68-46.41,24.39c-9-35.24,15-36.84,16-62.47.53-13.28,3.53-27.32,11.58-32.17,4.58-2.77,10.4-1.53,10.4-1.53,6.64-5.88,17.6-2.63,22,1.53,5.05,4.81,8.63,12.82,10.18,24.5C352.34,232.94,384.62,230.71,378.16,270.94Z"/><path class="cls-5" d="M330.67,226.57H311.2l-2.91,23.84c2.17,2.78,7.34,8.11,14.62,7.38,4.94-.5,8.42-4,10.66-7.28C333.85,250.51,330.67,226.57,330.67,226.57Z"/><path class="cls-4" d="M332.46,240.39c-14.36,6-20.64-2.7-20.64-2.7l19.49-6.21C331.65,234.06,332.07,237.31,332.46,240.39Z"/><path class="cls-5" d="M339.59,198.48c3.53,11.89.31,42.75-18.35,42.8-20,.06-21-33.47-17.64-44.25C307.89,183.16,335.76,185.58,339.59,198.48Z"/><path class="cls-3" d="M180.49,91.56,180,90.17a29.33,29.33,0,0,1,11.31-2l0,1.49A28.33,28.33,0,0,0,180.49,91.56Z"/><path class="cls-3" d="M159.19,127.24c-1.84-14.13,4.75-28.19,16.39-35l.75,1.29c-11.13,6.47-17.42,19.93-15.66,33.48Z"/><path class="cls-3" d="M162.77,138.74a34.39,34.39,0,0,1-2.84-7.56l1.45-.36a32.89,32.89,0,0,0,2.71,7.23Z"/><path class="cls-3" d="M170.28,106.37l-1.24-.84c7.29-10.79,21.24-14.81,32.45-9.36l-.65,1.34C190.29,92.38,177.15,96.19,170.28,106.37Z"/><path class="cls-3" d="M167.26,136a30.06,30.06,0,0,1-.24-27l1.34.65a28.61,28.61,0,0,0,.22,25.63Z"/><path class="cls-3" d="M205.15,107.68a19,19,0,0,0-17-6.86l-.2-1.47a20.51,20.51,0,0,1,18.37,7.38Z"/><path class="cls-3" d="M171.74,133.27a24.3,24.3,0,0,1-.92-19.89,22,22,0,0,1,12.85-13l.52,1.4a20.47,20.47,0,0,0-12,12.11,23.13,23.13,0,0,0,.85,18.67Z"/><path class="cls-3" d="M176.22,130.54a18.57,18.57,0,0,1,.09-16.91l1.32.69a17,17,0,0,0-.08,15.53Z"/><path class="cls-3" d="M203.12,114.15a14.34,14.34,0,0,0-10.48-7.66,14,14,0,0,0-12,3.83l-1-1.07A15.4,15.4,0,0,1,192.88,105a15.81,15.81,0,0,1,11.57,8.44Z"/><path class="cls-3" d="M198.64,116.88a10.3,10.3,0,0,0-1.72-2.4l1.07-1a11.36,11.36,0,0,1,2,2.74Z"/><path class="cls-3" d="M180.7,127.81a12.77,12.77,0,0,1,2.06-14.12,10,10,0,0,1,11.46-2.76l-.54,1.39a8.47,8.47,0,0,0-9.81,2.37A11.25,11.25,0,0,0,182,127.12Z"/><path class="cls-3" d="M185.19,125.07a6.54,6.54,0,0,1,2.27-8.5,5.53,5.53,0,0,1,4.42-.63,5.79,5.79,0,0,1,3.6,3l-1.33.69a4.34,4.34,0,0,0-2.67-2.24,4.08,4.08,0,0,0-3.24.47,5,5,0,0,0-1.73,6.55Z"/><path class="cls-3" d="M205.94,122a34,34,0,0,0-2.93-8l1.32-.69a34.91,34.91,0,0,1,3.06,8.38Z"/><path class="cls-3" d="M196.54,156.16l-1-1.12a34.28,34.28,0,0,0,11-29.33l1.49-.16A35.83,35.83,0,0,1,196.54,156.16Z"/><path class="cls-3" d="M176.34,158.39a24.43,24.43,0,0,1-4.08-.35l.26-1.47c9.76,1.69,19.89-3.26,25.22-12.33L199,145A26.66,26.66,0,0,1,176.34,158.39Z"/><path class="cls-3" d="M201,141l-1.39-.55a28.9,28.9,0,0,0-1.08-23.67l1.32-.69A30.39,30.39,0,0,1,201,141Z"/><path class="cls-3" d="M176.54,152.89a20,20,0,0,1-5.35-.74,21.06,21.06,0,0,1-13-10.83l1.33-.68a19.54,19.54,0,0,0,12.09,10.07,18.49,18.49,0,0,0,14.72-2.11c9.56-5.83,13-18.9,7.73-29.13l1.33-.69c5.65,10.92,1.94,24.86-8.28,31.09A20.2,20.2,0,0,1,176.54,152.89Z"/><path class="cls-3" d="M191.33,128.59a16.46,16.46,0,0,0-1.77-6.39l1.32-.69a18,18,0,0,1,1.94,7Z"/><path class="cls-3" d="M184.61,145.07l-.78-1.27a16.27,16.27,0,0,0,7.36-11.49l1.47.22A17.74,17.74,0,0,1,184.61,145.07Z"/><path class="cls-3" d="M176.74,147.34a16,16,0,0,1-14.08-8.75l1.32-.68a14.32,14.32,0,0,0,16,7.53l.37,1.44A14.35,14.35,0,0,1,176.74,147.34Z"/><path class="cls-3" d="M169.44,138.93a11.44,11.44,0,0,1-2.3-3.07l1.33-.68a9.78,9.78,0,0,0,2,2.67Z"/><path class="cls-3" d="M176.76,141.87a10.57,10.57,0,0,1-3.46-.59l.49-1.41a8.53,8.53,0,0,0,9.61-2.67,11.3,11.3,0,0,0,1.67-12.27l1.33-.68a12.81,12.81,0,0,1-1.87,13.92A10.18,10.18,0,0,1,176.76,141.87Z"/><path class="cls-3" d="M176.71,136.32a5.66,5.66,0,0,1-5.09-3.19l1.33-.69a4.33,4.33,0,0,0,2.68,2.24,4.05,4.05,0,0,0,3.23-.47,5,5,0,0,0,1.73-6.55l1.33-.68a6.55,6.55,0,0,1-2.28,8.5A5.55,5.55,0,0,1,176.71,136.32Z"/><rect class="cls-2" x="173.37" y="336.02" width="139.87" height="88.73" rx="8.51"/><path class="cls-3" d="M254.63,357.87h-3v-7.7a7.75,7.75,0,1,0-15.49,0v7.7h-3A5.12,5.12,0,0,0,228,363v16.41a5.13,5.13,0,0,0,5.13,5.13h21.55a5.13,5.13,0,0,0,5.12-5.13V363A5.12,5.12,0,0,0,254.63,357.87ZM245.39,372v5.23h-3.07V372a3.6,3.6,0,1,1,3.07,0Zm-6.32-14.14v-7.39a4.79,4.79,0,1,1,9.57,0v7.39Z"/><rect class="cls-3" x="187.44" y="392.74" width="112.83" height="20.86" rx="3.12"/><path class="cls-4" d="M210.77,403a3.51,3.51,0,1,1-3.51-3.51A3.51,3.51,0,0,1,210.77,403Z"/><path class="cls-4" d="M224.6,403a3.51,3.51,0,1,1-3.51-3.51A3.51,3.51,0,0,1,224.6,403Z"/><path class="cls-4" d="M238.44,403a3.51,3.51,0,1,1-3.51-3.51A3.51,3.51,0,0,1,238.44,403Z"/><path class="cls-4" d="M252.27,403a3.51,3.51,0,1,1-3.51-3.51A3.51,3.51,0,0,1,252.27,403Z"/><circle class="cls-4" cx="262.6" cy="403.02" r="3.51"/><circle class="cls-4" cx="276.43" cy="403.02" r="3.51"/><path class="cls-4" d="M612.48,514.2H566.77a14.58,14.58,0,0,1,.19-4s44.88.25,44.88.25Z"/><path class="cls-4" d="M611.84,510.49,567,510.2c.43-4.64,6.25-6.83,11.7-8.21.36-.1.72-.18,1.08-.27l2.26-.51,1.1-.24a25.29,25.29,0,0,0,4.34-1.2c.8-.39,1.79-.95,2.64-1.46l.81-.51c.8-.5,1.38-.89,1.38-.89,2.94,1,7.36,3.73,17.07-.67l.29,1.69.17.95Z"/><path class="cls-3" d="M579.76,501.72A10.34,10.34,0,0,0,579,505l-.92,0a11.29,11.29,0,0,1,.59-3C579,501.89,579.4,501.81,579.76,501.72Z"/><path class="cls-3" d="M583.12,501a10,10,0,0,0-.83,3.44l-.92,0a11.19,11.19,0,0,1,.65-3.17Z"/><path class="cls-3" d="M609.82,498.88a22.87,22.87,0,0,1-10.26,2.68,14.39,14.39,0,0,1-9.46-3.25l.81-.51c1.7,1.46,8,5.63,18.74.13Z"/><rect class="cls-3" x="566.98" y="509.7" width="44.86" height="1"/><path class="cls-4" d="M531.8,514.2H486.09a14.58,14.58,0,0,1,.19-4s44.88.25,44.88.25Z"/><path class="cls-4" d="M531.16,510.49l-44.86-.29c.43-4.64,6.25-6.83,11.69-8.21l1.09-.27,2.26-.51,1.1-.24a25.29,25.29,0,0,0,4.34-1.2c.8-.39,1.78-.95,2.64-1.46l.81-.51c.8-.5,1.38-.89,1.38-.89,2.94,1,7.36,3.73,17.07-.67l.29,1.69.17.95Z"/><path class="cls-3" d="M499.08,501.72a10.51,10.51,0,0,0-.76,3.28l-.91,0a11.52,11.52,0,0,1,.58-3Z"/><path class="cls-3" d="M502.44,501a10,10,0,0,0-.83,3.44l-.92,0a11.19,11.19,0,0,1,.65-3.17Z"/><path class="cls-3" d="M529.14,498.88a22.87,22.87,0,0,1-10.26,2.68,14.39,14.39,0,0,1-9.46-3.25l.81-.51c1.7,1.46,7.95,5.63,18.74.13Z"/><rect class="cls-3" x="486.3" y="509.7" width="44.48" height="1"/><path class="cls-4" d="M576,248.1l1-.19a104.1,104.1,0,0,0-8.6-25.67l-.88.46A102.91,102.91,0,0,1,576,248.1Z"/><path class="cls-4" d="M543.17,146.64c-14.39-.23-16.78-9.59-16.78-9.59-5.95-3.06-7.86,8.53-7.86,8.53s-3.37-8,1.17-13.51c1.94-2.35,5.9-4.5,11.81-5.18,9-1,14.75,1.32,17.74,8.29,4.67,10.9-1.41,16.34-1.41,16.34Z"/><path class="cls-4" d="M340.69,209.31c-17.85,2-24.64-12.13-24.64-12.13-12-5.24-14.55,10.85-14.55,10.85a21.66,21.66,0,0,1,1-15.24c6.31-13,32.35-8.55,37-1.22,7.36,11.47,3.73,19.78,3.73,19.78Z"/><path class="cls-4" d="M540,147.28c-4.88,0-8.6-1.18-11.09-3.53a10.19,10.19,0,0,1-3.18-7.29l.75,0a9.58,9.58,0,0,0,3,6.72c2.91,2.73,7.64,3.79,14,3.14l.08.74A34.47,34.47,0,0,1,540,147.28Z"/><path class="cls-5" d="M541.45,155s6.5,1.12,7.1-3.8c.54-4.43-4.77-5.69-7.28-3.56Z"/><path class="cls-4" d="M332.26,211.12a16.55,16.55,0,0,1-9.14-2.49c-6.41-4.12-7.52-11.78-7.56-12.11l1-.13c0,.07,1.1,7.54,7.12,11.4,4.25,2.74,9.93,3.07,16.88,1l.29,1A30.06,30.06,0,0,1,332.26,211.12Z"/><path class="cls-3" d="M580.28,226.26c3.53,36.52,8.41,58.06,8.41,58.06-30.8,3.4-69.15.46-92.59-11.19l14.6-65,17.91-29.79s8.48,8.64,19.74-2.9l27.41,15.74Z"/><path class="cls-3" d="M530.86,173.23c2.59.49,8.53.78,15.2-4.37a1.3,1.3,0,0,1,2.07.73l1.63,7.29s-11.37,11.89-20.94,2.54l.51-5A1.29,1.29,0,0,1,530.86,173.23Z"/><path class="cls-4" d="M295.33,209.44c-.11-.73-2.43-17.87,5.89-25.4,3.72-3.36,9-4.24,15.66-2.6l-.24,1c-6.33-1.55-11.29-.76-14.74,2.37-7.94,7.18-5.61,24.35-5.58,24.52Z"/><path class="cls-3" d="M565.42,489c-.29-.87-28.43-88.19-34.79-170.12l1-.08c6.35,81.81,34.46,169,34.74,169.89Z"/><path class="cls-3" d="M535.09,490s-.13-1-.35-3l1-.11c.22,1.92.35,3,.35,3Z"/><path class="cls-3" d="M534.12,481.15c-.18-1.73-.37-3.69-.56-5.85l1-.09q.3,3.24.56,5.84Zm-1.07-11.69c-.15-1.86-.31-3.82-.46-5.86l1-.07q.23,3.06.46,5.84Zm-.86-11.71c-.13-1.9-.24-3.86-.36-5.86l1-.06c.11,2,.23,4,.36,5.85ZM531.53,446c-.09-1.92-.18-3.87-.25-5.86l1,0c.07,2,.16,3.94.25,5.86Zm-.44-11.73c-.06-1.94-.1-3.89-.13-5.87l1,0q0,3,.13,5.86Zm-.2-11.74c0-1,0-2,0-3s0-1.91,0-2.88h1c0,1,0,1.92,0,2.87s0,2,0,3ZM532,410.83l-1,0q.06-2.93.15-5.87l1,0Q532,407.91,532,410.83Zm.39-11.71-1-.05q.15-2.94.34-5.86l1,.07Q532.49,396.19,532.35,399.12Zm.77-11.69-1-.08c.17-2,.35-3.92.56-5.85l1,.11C533.48,383.53,533.29,385.48,533.12,387.43Zm1.26-11.64-1-.13c.26-2,.55-3.92.85-5.82l1,.16C534.92,371.88,534.63,373.83,534.38,375.79Z"/><path class="cls-3" d="M536.24,364.26l-1-.2q.29-1.49.6-2.94l1,.21C536.63,362.29,536.43,363.27,536.24,364.26Z"/><path class="cls-3" d="M613.25,490.07s-.37-1-1-2.82l.94-.34c.65,1.83,1,2.82,1,2.82Z"/><path class="cls-3" d="M610.35,481.83c-.56-1.61-1.17-3.43-1.84-5.44l1-.32c.67,2,1.28,3.83,1.83,5.44Zm-3.63-10.9c-.56-1.73-1.15-3.56-1.75-5.47l.95-.3q.92,2.86,1.75,5.46ZM603.26,460c-.54-1.78-1.1-3.61-1.66-5.5l1-.29q.84,2.83,1.66,5.49ZM600,449q-.78-2.7-1.58-5.52l1-.27c.52,1.87,1,3.71,1.57,5.51Zm-3.11-11.05q-.75-2.75-1.49-5.55l1-.26c.49,1.88,1,3.72,1.48,5.54Zm-2.93-11.11q-.7-2.76-1.39-5.57l1-.24c.46,1.87.92,3.73,1.39,5.56Zm-2.73-11.16q-.65-2.77-1.28-5.6l1-.22c.41,1.88.84,3.74,1.27,5.59Zm-2.49-11.21c-.4-1.87-.78-3.74-1.16-5.62l1-.2q.57,2.82,1.15,5.62Zm-2.24-11.27q-.53-2.82-1-5.66l1-.17c.31,1.89.65,3.77,1,5.65Z"/><path class="cls-3" d="M584.56,381.88c-.16-1-.3-2-.45-3l1-.14c.15,1,.29,2,.45,3Z"/><path class="cls-4" d="M553.69,277c-19.8,0-36.52-2.91-52.14-8.9l.36-.93c22.51,8.63,47.34,10.82,80.53,7.08l.11,1A257.79,257.79,0,0,1,553.69,277Z"/><path class="cls-4" d="M553.3,267c-19.8,0-36.51-2.91-52.13-8.9l.36-.93c22.5,8.63,47.33,10.81,80.52,7.08l.11,1A257.65,257.65,0,0,1,553.3,267Z"/><path class="cls-4" d="M553,257h-1.39a155.57,155.57,0,0,1-30.63-3,128.12,128.12,0,0,1-19-5.46l.35-.93A127.29,127.29,0,0,0,521.13,253a155.16,155.16,0,0,0,30.44,3,252.14,252.14,0,0,0,30.1-1.77l.11,1A258,258,0,0,1,553,257Z"/><path class="cls-4" d="M552.63,247h-1.58a155.91,155.91,0,0,1-29.37-2.81,129,129,0,0,1-18.42-5l.34-.94a128,128,0,0,0,18.28,5A155.48,155.48,0,0,0,551.06,246a250.37,250.37,0,0,0,30.23-1.76l.11,1A257.51,257.51,0,0,1,552.63,247Z"/><path class="cls-4" d="M552.09,237h-1.54a157.28,157.28,0,0,1-28.11-2.59,128.7,128.7,0,0,1-17.8-4.65l.32-.94a129.67,129.67,0,0,0,17.67,4.61A156.11,156.11,0,0,0,550.56,236a254.3,254.3,0,0,0,30.34-1.76l.11,1A258,258,0,0,1,552.09,237Z"/><path class="cls-4" d="M552,227h-1.9a156.18,156.18,0,0,1-26.65-2.35l-.19,0a128.76,128.76,0,0,1-17-4.2l-.09,0,.18-1,.22.06a126.45,126.45,0,0,0,16.85,4.18l.19,0A156.24,156.24,0,0,0,550.06,226h.14a250.14,250.14,0,0,0,30.32-1.76l.11,1A258,258,0,0,1,552,227Z"/><path class="cls-4" d="M551.71,217h-2.17a158.71,158.71,0,0,1-25-2.07l.16-1A158,158,0,0,0,549.55,216h.55a247.65,247.65,0,0,0,30-1.75l.11,1A254,254,0,0,1,551.71,217Z"/><path class="cls-4" d="M548.33,207a158.4,158.4,0,0,1-22.64-1.53l.14-1A159,159,0,0,0,549.06,206H550a252.85,252.85,0,0,0,29.76-2.15l.12,1A254.44,254.44,0,0,1,550,207C549.45,207,548.89,207,548.33,207Z"/><path class="cls-4" d="M544.7,197.07a159.25,159.25,0,0,1-17.88-1l.11-1a160.41,160.41,0,0,0,21.65.92l1.3,0a253.06,253.06,0,0,0,29.46-2.7l.14,1A252.61,252.61,0,0,1,549.92,197l-1.23,0C547.34,197.06,546,197.07,544.7,197.07Z"/><path class="cls-4" d="M543.57,187c-5.4,0-10.53-.24-15.58-.72l.1-1a163.78,163.78,0,0,0,20,.67l1.73-.05,0,1-1.75.05C546.55,187,545.05,187,543.57,187Z"/><path class="cls-6" d="M596.67,297.07c-17.45.64-45.8-4.87-45.8-4.87L549.69,176l30.81,17.44Z"/><path class="cls-6" d="M529.14,176.43,516.29,285.07a218.52,218.52,0,0,1-20.9-6.78L509,206Z"/><rect class="cls-4" x="491.99" y="191.19" width="0.75" height="32.55" transform="translate(-37.07 135.58) rotate(-15.12)"/><path class="cls-5" d="M577.27,279.45a44.26,44.26,0,0,1-7.49,12.95c-.78,1-3,3.61-4.11,4.05s-7.09,1.91-6.65,3.16,4.38-.58,4.56.51c.12.67-7.53,4.51-6.42,5.76.72.83,5-2.13,5.25-1.57s-5.87,3.06-4.86,4.33,6.38-3.66,6.84-3c.22.32-6.63,4.49-5.77,5.51,1.14,1.35,6-3.57,6.62-3,.28.29-1.76,1.72-2.87,2.72-.61.56-.26,1.14.28,1,5.66-1.43,11.41-9.85,12.25-10.36a83.68,83.68,0,0,0,15-11.39Z"/><path class="cls-6" d="M569.31,291.45S581,276,576.39,247.6l31.3-24.66s12.83,56.07-27,77Z"/><path class="cls-4" d="M580.47,300.25l-11.73-8.75.3-.31c.16-.16,15.34-16.3,3.31-62.81l.73-.19c11.22,43.42-1.16,60.71-3.22,63.21l11.06,8.24Z"/><path class="cls-3" d="M247,311s4.68-53.93,61.33-60.59h25.82s61.12,6.94,61.12,60.59Z"/><path class="cls-3" d="M308.29,250.41l1-8.23c8.26,4.35,16.05,4.44,23.32,0l1.46,8.23s-3,8.17-13.37,8.34C311.54,258.9,308.29,250.41,308.29,250.41Z"/><rect class="cls-4" x="483.57" y="231.65" width="41.23" height="0.75" transform="translate(182.3 684.16) rotate(-79.26)"/><path class="cls-4" d="M575.48,245.05c-1.33-5.89-5.59-11.46-5.64-11.52l.6-.45c.18.23,4.4,5.75,5.77,11.8Z"/><path class="cls-4" d="M324.08,306.86a135.82,135.82,0,0,1-42.56-6.37l.31-.95c22.94,7.42,47.85,8.26,80.79,2.75l.16,1A234.89,234.89,0,0,1,324.08,306.86Z"/><path class="cls-4" d="M323.19,296.91A148.82,148.82,0,0,1,301,295.32a129.42,129.42,0,0,1-19.31-4.43l.3-1a127.43,127.43,0,0,0,19.16,4.4,155.21,155.21,0,0,0,30.56,1.38,255.37,255.37,0,0,0,30-3.37l.17,1a255.31,255.31,0,0,1-30.09,3.39Q327.39,296.9,323.19,296.91Z"/><path class="cls-4" d="M322.24,287a147.75,147.75,0,0,1-21-1.43,129.48,129.48,0,0,1-18.66-4l.29-1a128.46,128.46,0,0,0,18.51,4,154.94,154.94,0,0,0,29.3,1.22,249.82,249.82,0,0,0,30.08-3.37l.17,1a252.14,252.14,0,0,1-30.21,3.38C327.84,286.89,325,287,322.24,287Z"/><path class="cls-4" d="M321.36,277a149.66,149.66,0,0,1-19.86-1.27,130.26,130.26,0,0,1-18-3.69l.28-1a129.27,129.27,0,0,0,17.88,3.67,157.73,157.73,0,0,0,28,1.07,254,254,0,0,0,30.2-3.39l.17,1a252.05,252.05,0,0,1-30.33,3.39Q325.44,277,321.36,277Z"/><path class="cls-4" d="M320.44,267a149.88,149.88,0,0,1-18.5-1.11l-.19,0a127.5,127.5,0,0,1-17.19-3.29l-.1,0,.13-1,.22,0a127.14,127.14,0,0,0,17.06,3.27l.18,0a157,157,0,0,0,26.57.91h.14a251.08,251.08,0,0,0,30.18-3.38l.17,1a255.4,255.4,0,0,1-30.29,3.39h-.16C325.86,267,323.12,267,320.44,267Z"/><path class="cls-4" d="M321.54,257.15a156.81,156.81,0,0,1-37-4.53l-.11,0,.13-1,.21.05c17.54,4.29,44.48,7.69,73.25-.44l.27,1A135.13,135.13,0,0,1,321.54,257.15Z"/><path class="cls-6" d="M308.29,250.41l-4.7,60.43L247,311S250.39,253.63,308.29,250.41Z"/><path class="cls-6" d="M334.11,250.41l4.7,60.43,56.63.16S397.5,256,334.11,250.41Z"/><path class="cls-4" d="M276.7,310.93l-.95-.08c0-.41.93-10,3.53-16.18l.88.37C277.62,301.05,276.71,310.84,276.7,310.93Z"/><path class="cls-4" d="M368.13,310.94c0-.1-.86-9.88-3.37-15.91l.88-.37c2.57,6.17,3.4,15.79,3.44,16.2Z"/><path class="cls-3" d="M268.93,191.86h-2V169.55c0-6.84,5.86-12.41,13.06-12.41h23.5v1.91H280c-6.09,0-11.05,4.71-11.05,10.5Z"/><path class="cls-3" d="M303.48,260.06H280c-7.2,0-13.06-5.57-13.06-12.41V225.33h2v22.32c0,5.79,5,10.5,11.05,10.5h23.5Z"/><path class="cls-3" d="M375.27,191.86h-2V169.55a10.79,10.79,0,0,0-11.05-10.5H338.72v-1.91h23.49c7.2,0,13.06,5.57,13.06,12.41Z"/><path class="cls-3" d="M362.21,260.06H338.72v-1.91h23.49a10.79,10.79,0,0,0,11.05-10.5V225.33h2v22.32C375.27,254.49,369.41,260.06,362.21,260.06Z"/><path class="cls-4" d="M418.54,311.42H236.14v-1h182.4A6.43,6.43,0,0,0,425,304V206h1v98A7.43,7.43,0,0,1,418.54,311.42Z"/><rect class="cls-4" x="295.88" y="317.42" width="104.65" height="1"/><path class="cls-4" d="M539.67,124.25s-1.87-7.54,4.17-6.4c0,0,4.35-3.29,7.64.35,3.69,4.09-1.54,9.52-5.16,10.34Z"/><path class="cls-4" d="M539.34,124.43s-2.62-4.7.53-7.12a3.18,3.18,0,0,1,4.51.48l-.57.48a2.48,2.48,0,0,0-3.48-.37c-2.63,2-.36,6.12-.33,6.16Z"/><path class="cls-4" d="M547.57,129.11l-.22-.72s3.39-1.06,4.69-3.6a5.06,5.06,0,0,0,.17-4.09l.71-.24a5.81,5.81,0,0,1-.21,4.68C551.26,128,547.72,129.07,547.57,129.11Z"/><path class="cls-4" d="M314.14,181.73s-7.13-6.52-.08-9.51c0,0,2.23-6.42,8.15-4.91,6.65,1.69,5,10.93,1.79,14.28Z"/><path class="cls-4" d="M314,182.06c-.05,0-5.89-3-4.32-7.64,1.22-3.59,4.86-2.56,4.9-2.55l-.21.72a3.17,3.17,0,0,0-4,2.07c-1.36,4,3.9,6.71,3.95,6.73Z"/><path class="cls-4" d="M325.61,181.26l-.58-.47s2.82-3.47,2.41-7a6.45,6.45,0,0,0-2.69-4.42l.46-.59a7.08,7.08,0,0,1,3,4.93C328.63,177.56,325.74,181.11,325.61,181.26Z"/><rect class="cls-4" x="20.64" y="514.41" width="643.4" height="1.32"/></g></g></svg>