<?xml version="1.0" encoding="utf-8"?>
<!-- Generator: Adobe Illustrator 25.2.1, SVG Export Plug-In . SVG Version: 6.00 Build 0)  -->
<svg version="1.1" id="a3f12c09-8e82-4948-a300-d3a23113d6dc"
	 xmlns="http://www.w3.org/2000/svg" xmlns:xlink="http://www.w3.org/1999/xlink" x="0px" y="0px" viewBox="0 0 1144 751.9"
	 style="enable-background:new 0 0 1144 751.9;" xml:space="preserve">
<style type="text/css">
	.st0{fill:#F2F2F2;}
	.st1{fill:#3F3D56;}
	.st2{fill:#42117A;}
	.st3{fill:#2F2E41;}
	.st4{fill:#FFB8B8;}
	.st5{fill:#D0CDE1;}
</style>
<polygon class="st0" points="1112,428.1 904.8,604.4 859.5,643 732.7,642.3 624.4,641.6 615.5,641.5 593.5,615.7 506.2,513.2 
	462.3,461.7 449.1,446.2 439.6,435 418.4,410.1 384,369.7 418.8,340 452.1,311.7 476,291.3 777.2,34.8 "/>
<rect x="97" y="101.9" class="st1" width="397" height="287"/>
<rect x="579" y="694.9" class="st1" width="374" height="2"/>
<path class="st2" d="M1133.9,641.9H834.6c0,0-6.1-89,29.8-90c35.9-1,31.9,39.4,76.9-16.2s99.6-52.6,106.7-19.7
	c7.1,32.9-13.7,59.2,24.3,51.1C1110.2,559,1164.8,580.2,1133.9,641.9z"/>
<path class="st0" d="M979.2,641.9l-1,0c2.4-58.6,14.6-96.2,24.5-117.5c10.7-23.1,21.1-32.4,21.2-32.5l0.7,0.8
	c-0.1,0.1-10.3,9.3-21,32.3C993.7,546.1,981.5,583.6,979.2,641.9z"/>
<path class="st0" d="M1087.5,642.1l-1-0.3c11.7-40.1,39.2-65.5,39.5-65.7l0.7,0.7C1126.5,577.1,1099.1,602.2,1087.5,642.1z"/>
<path class="st0" d="M881.7,642l-1-0.1c4-28.6-3.2-50.8-9.9-64.4c-7.3-14.7-15.6-22.7-15.6-22.8l0.7-0.7c0.1,0.1,8.5,8.2,15.8,23.1
	C878.5,590.7,885.7,613.1,881.7,642z"/>
<rect x="43" y="641.9" class="st1" width="1101" height="2"/>
<rect x="724.7" y="39.4" class="st3" width="94.7" height="117.7"/>
<polygon class="st4" points="646.5,588.2 633.6,635.6 655.1,651.3 660.9,647 670.9,598.3 "/>
<polygon class="st4" points="808.7,583.9 804.4,641.3 831.6,641.3 831.6,588.2 "/>
<polygon class="st4" points="722.6,220.9 722.6,255.3 775.7,264 821.6,245.3 813,223.8 "/>
<path class="st3" d="M765.6,249.6l-45.9-8.6l-11.5,93.3l-28.7,116.2c0,0-43,99-37.3,122l2.9,7.2l-2.9,12.9l28.7,11.5l11.5-18.7
	c0,0,8.6,12.9,23-14.3c14.3-27.3,74.6-196.6,74.6-196.6l10,28.7c-2.6,8.9-3.1,18.2-1.4,27.3c2.9,14.3,5.7,58.8,5.7,58.8
	s-15.8,77.5,5.7,83.2l4.3,17.2l30.1,2.9l5.7-17.2c0,0,28.7-10,21.5-60.3c-7.2-50.2-10-215.2-10-215.2l-28.3-69.7L765.6,249.6z"/>
<path class="st3" d="M642.2,632.7c0,0-7.2-5.7-10-4.3c-2.9,1.4-33,40.2-33,40.2s-31.6,24.4-8.6,27.3c23,2.9,86.1-28.7,86.1-35.9
	s-13.3-25.1-13.3-25.1S653.7,642.7,642.2,632.7z"/>
<path class="st3" d="M801.5,628.4c0,0,25.8-1.6,30.1,2.8s2.9,25.9,2.9,25.9s2.9,38.7-20.1,38.7S797.2,670,797.2,670L801.5,628.4z"/>
<circle class="st4" cx="775.7" cy="58.8" r="35.9"/>
<path class="st4" d="M752,81c0,0,20.1,24.4-20.1,43s28.7,96.1,28.7,96.1s80.3-30.1,73.2-89c0,0-48.8-8.6-37.3-48.8L752,81z"/>
<path class="st4" d="M730.5,122.6c0,0-33-4.3-34.4,23s0,93.3,0,93.3s-14.3,57.4-7.2,107.6c0,0-8.6,58.8,14.3,56s5.7-60.3,5.7-60.3
	l10-93.3l-4.3-68.9l18.7-41.6L730.5,122.6z"/>
<path class="st4" d="M825.4,129c0,0,31.3-0.6,32.7,22.4s-10,93.3-10,93.3l-17.2,8.6l-15.8-48.8L825.4,129z"/>
<path class="st4" d="M834.5,246.7l-2.9,7.2l8.6,21.5c0,0-34.4,27.3-31.6,33s18.7-7.2,18.7-7.2l23,11.5c0,0,18.7-20.1,10-38.7
	s-11.9-31-11.9-31S835.9,242.4,834.5,246.7z"/>
<path class="st2" d="M724,117.6l-4.3,47.3c0,0-20.1,20.1,2.9,47.3l-2.9,21.5c0,0,53.1-2.9,63.1,0s41.1-2.3,41.1-2.3l0.5-16.3
	c0,0,14.3-20.1,10-50.2s0-40.2,0-40.2l-10-1.4c0,0-6.5,43.8-50.9,48.1c0,0-55.2,5-39.5-53.8L724,117.6z"/>
<path class="st3" d="M779.3,0.7c0,0-37.3-2.3-45.9,20.9s-23.7,35.4-23.7,35.4s-23.7,16.5-11.9,45.9c0,0-36.9,24.8-12.5,46.8
	c0,0-1.4,22,12.9,37.1c0,0,11.5,5.8,7.2,9.3s28.7,1.2,25.8-30.2s16.5-53.4,16.5-53.4S729,72,737.6,58.1c5.2-8.5,7.5-14.8,11.8-18.4
	c2.4-2,4.7-4.2,6.7-6.5c3.9-5,10.6-7.1,16.6-5.2c12.9,3.5,15.8,13.9,15.8,13.9s9.3,24.9,25.1,36.5s-12.2,31.9-12.2,31.9
	s4.9,23.9,17.5,38s-3.6,26.5-4.6,28.1c-2.2,3.6-10.7,26.5,24.8,26.6c0,0,8.2-17.3,19.7-27.7s2.9-40.6,2.9-40.6s17.2-10.4-1.4-36
	c0,0,5.7-23.2-10-38.3C850.3,60.4,828-7.4,779.3,0.7z"/>
<ellipse class="st4" cx="736.9" cy="58.1" rx="3.6" ry="5.7"/>
<path class="st2" d="M593,750.9H1c0,0-12-176,59-178s63,78,152-32s197-104,211-39s-27,117,48,101S654,628.9,593,750.9z"/>
<path class="st0" d="M287,751l-2-0.1c4.7-115.9,28.9-190.3,48.5-232.4c21.2-45.7,41.7-64.1,41.9-64.3l1.3,1.5
	c-0.2,0.2-20.4,18.5-41.4,63.8C315.8,561.4,291.6,635.5,287,751z"/>
<path class="st0" d="M501.3,751.2l-1.9-0.6c23.1-79.4,77.6-129.5,78.1-130l1.3,1.5C578.3,622.7,524.2,672.4,501.3,751.2z"/>
<path class="st0" d="M94.2,751.1l-2-0.3c7.8-56.6-6.3-100.5-19.6-127.3c-14.4-29.1-30.8-45-30.9-45.1l1.4-1.4
	c0.2,0.2,16.8,16.3,31.3,45.7C87.9,649.7,102.2,694,94.2,751.1z"/>
<rect y="749.9" class="st1" width="837" height="2"/>
<path class="st1" d="M565,389.9H96v-372h469V389.9z M98,387.9h465v-368H98V387.9z"/>
<circle class="st2" cx="137" cy="170.9" r="17"/>
<circle class="st5" cx="185" cy="170.9" r="17"/>
<circle class="st2" cx="233" cy="170.9" r="17"/>
<circle class="st0" cx="281" cy="170.9" r="17"/>
<rect x="330" y="162.9" class="st0" width="140" height="16"/>
<circle class="st0" cx="288" cy="283.9" r="46"/>
<path class="st2" d="M288.2,297.8l-23-23c-1.6-1.6-1.6-4.1,0-5.7s4.1-1.6,5.7,0l17,17l54.2-61.8c1.5-1.7,4-1.8,5.6-0.4
	c1.7,1.5,1.8,4,0.4,5.6c0,0,0,0,0,0L288.2,297.8z"/>
</svg>
