<?xml version="1.0" encoding="utf-8"?>
<!-- Generator: Adobe Illustrator 25.2.1, SVG Export Plug-In . SVG Version: 6.00 Build 0)  -->
<svg version="1.1" id="a9bf0661-4ff9-474e-842c-2ecc0dde3355"
	 xmlns="http://www.w3.org/2000/svg" xmlns:xlink="http://www.w3.org/1999/xlink" x="0px" y="0px" viewBox="0 0 864 645"
	 style="enable-background:new 0 0 864 645;" xml:space="preserve">
<style type="text/css">
	.st0{fill:#F2F2F2;}
	.st1{fill:#FFFFFF;}
	.st2{fill:#FFB6B6;}
	.st3{fill:#2F2E41;}
	.st4{fill:#F7B72D;}
	.st5{fill:#E6E6E6;}
	.st6{fill:#E4E4E4;}
	.st7{fill:#42117A;}
	.st8{fill:#FFB7B7;}
	.st9{fill:#3F3D56;}
	.st10{fill:#CACACA;}
</style>
<path class="st0" d="M291.7,600l-13.2,12.1l10.5-17.6c-8.2-15-21.7-27.9-21.7-27.9s-28,26.8-28,47.9s12.5,28.4,28,28.4
	c15.5,0,28-7.4,28-28.4C295,609.5,293.8,604.5,291.7,600z"/>
<path class="st1" d="M275.1,612.8v1c-0.1,12.1-2.1,21.5-6.1,28.1c-0.1,0.1-0.1,0.2-0.2,0.3l-0.4-0.3l-0.4-0.3
	c4.4-7.2,6-17.3,6.1-27.8c0-0.3,0-0.7,0-1c0-4.5-0.3-9-0.7-13.3c0-0.3-0.1-0.7-0.1-1c-0.6-5.8-1.5-11.3-2.4-16.1
	c-0.1-0.3-0.1-0.7-0.2-1c-1.5-8.1-3.1-14-3.5-15.3c0-0.2-0.1-0.2-0.1-0.3l0.5-0.1l0,0l0.5-0.1c0,0,0.1,0.3,0.2,0.9
	c0.6,2,2,7.6,3.4,14.9c0.1,0.3,0.1,0.7,0.2,1c0.7,3.9,1.4,8.2,2,12.8c0.1,1.1,0.3,2.3,0.4,3.4c0,0.3,0.1,0.7,0.1,1
	C274.9,604.2,275.1,608.6,275.1,612.8z"/>
<path class="st1" d="M271.7,581.2c-0.3,0-0.7,0.1-1,0.1c-1,0.1-1.9,0.1-2.9,0.1c-4.1,0-8.2-0.9-11.9-2.7c-0.2,0.3-0.4,0.5-0.7,0.8
	c3.9,1.9,8.2,2.9,12.6,2.9c1,0,2.1-0.1,3.1-0.2c0.3,0,0.7-0.1,1-0.1c2.8-0.4,5.6-1.2,8.2-2.5c-0.2-0.3-0.4-0.6-0.6-0.8
	C277,580.1,274.4,580.8,271.7,581.2z"/>
<path class="st1" d="M274.3,598.4c-0.4,0-0.7,0-1.1,0c-0.1,0-0.2,0-0.3,0c-9.1,0-17.6-4.4-22.8-11.9c-0.2,0.3-0.4,0.6-0.6,0.9
	c5.4,7.5,14.1,12,23.4,12c0.1,0,0.3,0,0.4,0c0.4,0,0.7,0,1.1,0c5.5-0.3,10.8-2.1,15.2-5.3c-0.2-0.3-0.3-0.6-0.5-0.9
	C284.8,596.3,279.6,598.2,274.3,598.4z"/>
<path class="st1" d="M275.1,612.8c-0.4,0-0.7,0.1-1.1,0.1c-0.4,0-0.8,0-1.2,0c-12.3,0-23.2-8.2-26.7-20c-0.2,0.4-0.5,0.8-0.7,1.2
	c3.9,11.8,14.9,19.8,27.3,19.8c0.4,0,0.8,0,1.2,0c0.4,0,0.7,0,1.1-0.1c7.3-0.6,14.1-3.9,19-9.3c-0.1-0.4-0.2-0.8-0.4-1.1
	C289,608.8,282.3,612.2,275.1,612.8z"/>
<path class="st0" d="M785.7,618.4l-17.9,1l19.2-6.9c3.1-16.8,0.9-35.3,0.9-35.3s-38.6,3-52,19.3s-8.3,29.9,3.6,39.7
	c12,9.8,26.3,12,39.7-4.3C782.3,627.9,784.5,623.3,785.7,618.4z"/>
<path class="st1" d="M764.8,617.8l-0.7,0.8c-7.7,9.3-15.2,15.3-22.5,17.9c-0.1,0-0.2,0.1-0.3,0.1l-0.2-0.5l-0.2-0.5
	c8-2.7,15.6-9.6,22.3-17.7c0.2-0.3,0.4-0.5,0.7-0.8c2.8-3.5,5.5-7.1,7.9-10.8c0.2-0.3,0.4-0.6,0.6-0.9c3.2-4.9,6-9.7,8.4-14
	c0.2-0.3,0.3-0.6,0.5-0.9c3.9-7.3,6.4-12.8,7-14c0.1-0.1,0.1-0.2,0.1-0.3l0.5,0.2l0,0l0.5,0.2c0,0-0.1,0.3-0.4,0.8
	c-0.9,1.9-3.3,7.1-6.8,13.6c-0.2,0.3-0.3,0.6-0.5,0.9c-1.9,3.5-4.1,7.3-6.6,11.2c-0.6,1-1.2,1.9-1.9,2.9c-0.2,0.3-0.4,0.6-0.6,0.9
	C770,611,767.4,614.6,764.8,617.8z"/>
<path class="st1" d="M782.2,591.2c-0.3-0.2-0.6-0.4-0.9-0.6c-0.8-0.5-1.6-1.1-2.3-1.7c-3.2-2.6-5.8-5.9-7.5-9.6
	c-0.3,0.1-0.7,0.1-1,0.2c1.8,4,4.5,7.5,7.9,10.2c0.8,0.7,1.6,1.3,2.5,1.8c0.3,0.2,0.6,0.4,0.9,0.6c2.5,1.5,5.1,2.6,7.9,3.3
	c0-0.4,0-0.7,0-1.1C787,593.7,784.5,592.7,782.2,591.2z"/>
<path class="st1" d="M773.2,606.2c-0.3-0.2-0.6-0.4-0.8-0.7c-0.1-0.1-0.2-0.1-0.3-0.2c-7-5.8-10.8-14.6-10.1-23.6
	c-0.4,0.1-0.7,0.2-1.1,0.3c-0.6,9.3,3.3,18.2,10.5,24.1c0.1,0.1,0.2,0.2,0.3,0.3c0.3,0.2,0.6,0.4,0.8,0.7c4.4,3.3,9.7,5.2,15.2,5.5
	c0.1-0.3,0.1-0.7,0.2-1C782.7,611.3,777.6,609.4,773.2,606.2z"/>
<path class="st1" d="M764.8,617.8c-0.3-0.2-0.6-0.4-0.9-0.6c-0.3-0.2-0.6-0.5-0.9-0.7c-9.5-7.8-12.8-21-7.9-32.4
	c-0.4,0.2-0.9,0.3-1.3,0.5c-4.5,11.6-1,24.8,8.6,32.6c0.3,0.2,0.6,0.5,0.9,0.7c0.3,0.2,0.6,0.4,0.9,0.6c6,4.2,13.3,5.9,20.5,4.9
	c0.2-0.4,0.3-0.7,0.4-1.1C778,623.6,770.7,621.9,764.8,617.8z"/>
<polygon class="st2" points="165.7,630.5 179.7,630.5 182.3,576.5 165.7,576.8 "/>
<path class="st3" d="M162.2,626l27.4,0h0c9.7,0,17.5,7.8,17.5,17.5v0.6l-44.9,0L162.2,626z"/>
<polygon class="st2" points="109.4,630.5 123.3,630.5 126.1,576.5 109.4,576.8 "/>
<path class="st3" d="M105.9,626l27.4,0h0c9.7,0,17.5,7.8,17.5,17.5v0.6l-44.9,0L105.9,626z"/>
<path class="st2" d="M245.1,399c-0.2-6.1-5.3-10.9-11.4-10.7c-0.7,0-1.3,0.1-1.9,0.2L211.5,355l-8.7,18.4l20.7,29.1
	c1.7,5.9,7.8,9.3,13.7,7.6C242,408.8,245.4,404.2,245.1,399L245.1,399z"/>
<path class="st2" d="M75.1,434.2c3.6-4.9,2.5-11.8-2.4-15.4c-0.5-0.4-1.1-0.7-1.7-1l4.6-39l-18.2,9.2l-1.6,35.6
	c-2.3,5.7,0.4,12.2,6.1,14.5C66.7,439.9,72.1,438.3,75.1,434.2L75.1,434.2z"/>
<path class="st3" d="M173.9,394.7l9.9,5.8c0,0,8,5.1,5.3,40.6s-5.9,177.7-5.9,177.7h-17.5l-28.3-169.9L127,620.7l-18.4-0.9
	c0,0-37.6-195.5-21.3-216.8L173.9,394.7z"/>
<path class="st4" d="M81.3,269c0,0,48-15.4,86.7-1l-3.2,74.7l23.9,58.3c0,0-75.9,29.5-101.2,4.7l7.4-58.4L81.3,269z"/>
<path class="st4" d="M155.1,276.8l10.1-8.8c0,0,6.7-0.1,12.5,10.2s16.2,43.6,16.2,43.6l33.5,56.7l-14.7,10.1l-53.1-74.3L155.1,276.8
	z"/>
<path class="st4" d="M83.1,272.7l0.7-4.7c0,0-18.7,1.4-20.3,19.4s-7.4,119.7-7.4,119.7l18.5,3.7L93,306.5L83.1,272.7z"/>
<path class="st3" d="M147.9,242l-56.1,11c-2.4,0.5-4.7-1.1-5.2-3.5l-4.8-24.2c-3.5-17.9,8.1-35.3,26-38.8s35.3,8.1,38.8,26l4.8,24.2
	C151.9,239.2,150.3,241.6,147.9,242z"/>
<circle class="st2" cx="121.7" cy="221.9" r="24.2"/>
<path class="st3" d="M154.8,213.6l-34.3,6.8l-1.3-4.9l-0.8,5.3l-5.3,1l-2.6-9.6l-1.6,10.4l-10.2,2l-0.1-0.5
	c-2.8-14.2,6.4-27.9,20.6-30.7l4.8-1c14.2-2.8,27.9,6.4,30.7,20.6L154.8,213.6z"/>
<path class="st3" d="M126.2,251c-0.3,0.1-0.5,0.1-0.8,0.1l-26,0.5l-8.2-41.5l27.6-5.4l-0.5,0.9c-7.3,13,3.4,29.6,10.4,38.3
	c1.1,1.3,1.3,3.1,0.6,4.6C128.8,249.8,127.6,250.7,126.2,251z"/>
<rect id="b0371f3f-df42-4d60-b6c1-6000de199dd5" x="160.3" y="0.3" class="st0" width="335" height="175.9"/>
<rect id="a5ec3362-5fc6-49dd-bbc1-e584c03fc30b" x="160.1" class="st5" width="335" height="20.4"/>
<rect id="edb19af0-e7ad-43aa-9651-c68038fb40c2" x="167.9" y="28.7" class="st1" width="321.1" height="138.2"/>
<circle id="fcfbd1c3-546b-4aa9-92d2-19035f23e7a3" class="st1" cx="191.9" cy="10.1" r="3.4"/>
<circle id="fcf1e260-d16a-4b37-91b5-eb72ad8ee2c7" class="st1" cx="204.7" cy="10.1" r="3.4"/>
<circle id="ae552ed4-f0ed-4b8a-a24a-450e5f71adc4" class="st1" cx="179" cy="10.1" r="3.4"/>
<circle class="st6" cx="222.6" cy="127.2" r="5.9"/>
<circle class="st6" cx="275" cy="111.7" r="5.9"/>
<circle class="st6" cx="327.3" cy="127.2" r="5.9"/>
<circle class="st6" cx="379.7" cy="48.9" r="5.9"/>
<circle class="st6" cx="432" cy="48.2" r="5.9"/>
<polygon class="st6" points="327.5,128.5 275,112.2 223.2,128 222,126.4 275,109.8 327.2,125.9 379.1,48.1 379.3,48 431.7,47.9 
	432.4,49.7 380.3,49.8 "/>
<rect id="a979eff9-2035-45aa-8fad-490bbaa22894" x="236.2" y="230.6" class="st0" width="315.2" height="165.5"/>
<rect id="b5344e31-85e8-4079-8f4b-e609523654c2" x="236" y="230.4" class="st5" width="315.2" height="19.2"/>
<rect id="a6983896-3ceb-4bf9-866b-7e40cad74d1b" x="242.8" y="256.2" class="st1" width="302.7" height="131.5"/>
<circle id="f96e66fe-9216-4da2-bba4-b63d176988a9" class="st1" cx="265.9" cy="239.9" r="3.2"/>
<circle id="e3ffbb79-e13a-4bd7-b23c-45510780cb2f" class="st1" cx="277.9" cy="239.9" r="3.2"/>
<ellipse id="ec6ea03b-7290-43d8-8b25-59bf30f1f0ee" transform="matrix(0.1602 -0.9871 0.9871 0.1602 -23.6806 452.0053)" class="st1" cx="253.8" cy="239.9" rx="3.2" ry="3.2"/>
<rect id="e9e5cf6b-8f55-43bf-8281-302b4fb1e9d5" x="387.9" y="72.5" class="st5" width="373.9" height="196.3"/>
<rect id="e4e8a65e-8422-4898-a810-30d755c7dafc" x="387.7" y="72.2" class="st4" width="373.9" height="22.8"/>
<rect id="b6acd298-89f8-46a0-ab3e-c2f0533bc288" x="396.3" y="102" class="st1" width="356.5" height="155.9"/>
<circle id="a2e6f9e4-3ad4-420f-8fe3-197d901d1e70" class="st1" cx="423.2" cy="83.6" r="3.8"/>
<circle id="b303a717-eadc-4672-a419-54a1feb6afd8" class="st1" cx="437.4" cy="83.6" r="3.8"/>
<circle id="b1ff2c46-8045-41fc-afe2-76f8fb520d89" class="st1" cx="408.8" cy="83.6" r="3.8"/>
<path class="st5" d="M577.2,136.2c-1.7,0.2-2.9,1.8-2.7,3.5c0.2,1.4,1.3,2.5,2.7,2.7h126.3c1.7-0.2,2.9-1.8,2.7-3.5
	c-0.2-1.4-1.3-2.5-2.7-2.7H577.2z"/>
<path class="st5" d="M577.2,208.3c-1.7,0.2-2.9,1.8-2.7,3.5c0.2,1.4,1.3,2.5,2.7,2.7h126.3c1.7-0.2,2.9-1.8,2.7-3.5
	c-0.2-1.4-1.3-2.5-2.7-2.7H577.2z"/>
<path class="st5" d="M577.2,154.5c-1.7,0.2-2.9,1.8-2.7,3.5c0.2,1.4,1.3,2.5,2.7,2.7h54.3c1.7-0.2,2.9-1.8,2.7-3.5
	c-0.2-1.4-1.3-2.5-2.7-2.7H577.2z"/>
<path class="st5" d="M577.2,172c-1.7,0.2-2.9,1.8-2.7,3.5c0.2,1.4,1.3,2.5,2.7,2.7h126.3c1.7-0.2,2.9-1.8,2.7-3.5
	c-0.2-1.4-1.3-2.5-2.7-2.7H577.2z"/>
<path class="st5" d="M577.2,190.3c-1.7,0.2-2.9,1.8-2.7,3.5c0.2,1.4,1.3,2.5,2.7,2.7h54.3c1.7-0.2,2.9-1.8,2.7-3.5
	c-0.2-1.4-1.3-2.5-2.7-2.7H577.2z"/>
<path class="st6" d="M503.6,211c1.6,0,2.9-1.3,2.9-2.9c0-1.6-1.3-2.9-2.9-2.9c0,0,0,0,0,0h-59c-1.6,0-2.9,1.3-2.9,2.9
	c0,1.6,1.3,2.9,2.9,2.9H503.6z"/>
<path class="st6" d="M503.6,193.9c1.6,0,2.9-1.3,2.9-2.9c0-1.6-1.3-2.9-2.9-2.9h-59c-1.6,0-2.9,1.3-2.9,2.9c0,1.6,1.3,2.9,2.9,2.9
	H503.6z"/>
<path class="st7" d="M474.1,139.5c10.1,0,18.3,8.2,18.3,18.3c0,10.1-8.2,18.3-18.3,18.3c-10.1,0-18.3-8.2-18.3-18.3l0,0l0,0
	C455.8,147.7,464,139.5,474.1,139.5z"/>
<circle class="st6" cx="326" cy="294.3" r="7.2"/>
<path class="st6" d="M441.1,288.7c2.7,0,4.9,2.2,4.9,4.9c0,2.7-2.2,4.9-4.9,4.9c0,0,0,0,0,0h-75.4c-2.7,0-4.9-2.2-4.9-4.9
	c0-2.7,2.2-4.9,4.9-4.9c0,0,0,0,0,0H441.1 M441.1,287.5h-75.4c-3.3,0-6.1,2.7-6.1,6s2.7,6.1,6,6.1c0,0,0,0,0,0h75.4
	c3.3,0,6.1-2.7,6.1-6S444.4,287.5,441.1,287.5C441.1,287.5,441.1,287.5,441.1,287.5z"/>
<path class="st6" d="M411.3,299.6h-56.7c-3.3,0-6-2.7-6-6s2.7-6,6-6h56.7c3.3,0,6,2.7,6,6S414.7,299.6,411.3,299.6L411.3,299.6z"/>
<circle class="st6" cx="326" cy="324.1" r="7.2"/>
<path class="st6" d="M441.1,318.5c2.7,0,4.9,2.2,4.9,4.9c0,2.7-2.2,4.9-4.9,4.9c0,0,0,0,0,0h-75.4c-2.7,0-4.9-2.2-4.9-4.9
	c0-2.7,2.2-4.9,4.9-4.9c0,0,0,0,0,0H441.1 M441.1,317.3h-75.4c-3.3,0-6.1,2.7-6.1,6s2.7,6.1,6,6.1c0,0,0,0,0,0h75.4
	c3.3,0,6.1-2.7,6.1-6S444.4,317.3,441.1,317.3C441.1,317.3,441.1,317.3,441.1,317.3z"/>
<path class="st6" d="M432.8,329.4h-78.2c-3.3,0-6-2.7-6-6s2.7-6,6-6h78.2c3.3,0,6,2.7,6,6.1C438.8,326.7,436.1,329.4,432.8,329.4z"
	/>
<circle class="st6" cx="326" cy="353.8" r="7.2"/>
<path class="st6" d="M441.1,348.2c2.7,0,4.9,2.2,4.9,4.9c0,2.7-2.2,4.9-4.9,4.9h-75.4c-2.7,0-4.9-2.2-4.9-4.9c0-2.7,2.2-4.9,4.9-4.9
	l0,0H441.1 M441.1,347.1h-75.4c-3.3,0-6.1,2.7-6.1,6s2.7,6.1,6,6.1c0,0,0,0,0,0h75.4c3.3,0,6.1-2.7,6.1-6S444.4,347.1,441.1,347.1
	C441.1,347.1,441.1,347.1,441.1,347.1z"/>
<path class="st6" d="M441.4,359.2h-86.7c-3.3,0-6-2.7-6-6s2.7-6,6-6h86.7c3.3,0,6,2.7,6,6S444.7,359.2,441.4,359.2z"/>
<path class="st8" d="M666.9,431.6c3.3-3.9,2.8-9.8-1.1-13.1c-0.4-0.4-0.9-0.7-1.3-0.9l6.2-32.5l-15.9,6.6l-3.4,29.9
	c-2.3,4.6-0.4,10.3,4.3,12.5C659.4,435.9,664.1,434.9,666.9,431.6z"/>
<polygon class="st8" points="746,631 732.6,631 726.2,579.2 746,579.2 "/>
<path class="st3" d="M749.4,644.1l-43.3,0v-0.5c0-9.3,7.6-16.9,16.9-16.9h0l26.5,0L749.4,644.1z"/>
<polygon class="st8" points="672.6,631 659.1,631 652.7,579.2 672.6,579.2 "/>
<path class="st3" d="M672.7,644.1l-43.3,0v-0.5c0-9.3,7.6-16.9,16.9-16.9h0l26.5,0L672.7,644.1z"/>
<polygon class="st3" points="671.5,412.1 658.3,442.4 647.5,616.6 674.9,615.5 682.3,532.5 705.4,458.5 718.7,540.9 724.2,613.3 
	746.9,614.3 755.9,412.1 "/>
<path class="st9" d="M737.2,262.6l-38.1,1L676.7,275l-1.2,84.8l-14,58.5c0,0,87.2,6,99.3-2.8l-14.3-66.9l19.1-72.3L737.2,262.6z"/>
<path class="st9" d="M680.8,276.3l-4.1-1.3c0,0-12.9,8.3-11.7,28.3c0,0-0.5,10.4,0,17.3c0.5,7.9-15.3,86.6-15.3,86.6h23l9.9-71.3
	L680.8,276.3z"/>
<path class="st8" d="M765.1,432.7c-3.3-3.9-2.8-9.8,1.1-13.1c0.4-0.4,0.9-0.7,1.3-0.9l-6.2-32.5l15.9,6.6l3.4,29.9
	c2.3,4.6,0.4,10.3-4.3,12.5C772.5,437,767.8,436,765.1,432.7z"/>
<path class="st9" d="M759.9,277.4l4.1-1.3c0,0,12.9,8.3,11.7,28.3c0,0,0.5,10.4,0,17.3c-0.5,7.9,6.6,86.6,6.6,86.6h-23l-9.9-71.3
	L759.9,277.4z"/>
<path class="st8" d="M746.6,227c0,14.6-11.8,26.4-26.4,26.4c-14.6,0-26.4-11.8-26.4-26.4s11.8-26.4,26.4-26.4h0l0,0
	c14.6,0,26.4,11.7,26.4,26.3C746.6,226.9,746.6,226.9,746.6,227z"/>
<path class="st3" d="M693.8,191.5c3.1-6.7,9.1-5.3,14.3-3.1c6.6-1.5,12.9-5.9,20.1-3.3c7,10.2,30.7,7.2,25.7,23.9
	c0,4,7.5,1.7,6.2,8.2c4,12.6-14.4,36.4-24.9,31.4c2.6-4.8,8.6-15.6-0.5-16.7c-19.4,18.1-2-34.5-26.4-19.2
	C700.1,220.2,689.1,198.9,693.8,191.5z"/>
<path class="st10" d="M863,645H1c-0.6,0-1-0.4-1-1s0.4-1,1-1h862c0.6,0,1,0.4,1,1S863.6,645,863,645z"/>
</svg>
